# xmcd
#
# Track frame offsets: 
#        150
#        25732
#        45545
#        64825
#        85442
#
# Disc length: 1402 seconds
#
# Revision: 0
# Processed by: cddbd v1.5.2PL0 Copyright (c) Steve Scherf et al.
# Submitted via: ExactAudioCopy v0.95b4
#
DISCID=39057805
DTITLE=Gibson Miller Band - Special Extended Play Dance Mixes
DYEAR=1992
DGENRE=Country
TTITLE0=Big Heart (Extended Mix)
TTITLE1=Texas Tattoo (Extended Dance Mix)
TTITLE2=Where There's Smoke (Extended Mix)
TTITLE3=Your Daddy Hates Me (Extended Dance Mix)
TTITLE4=Stone Cold Country (Extended Mix)
EXTD=
EXTT0=
EXTT1=
EXTT2=
EXTT3=
EXTT4=
PLAYORDER=
